<?xml version="1.0" encoding="UTF-8" standalone="no"?>
<!-- Created with Inkscape (http://www.inkscape.org/) -->

<svg
   xmlns:dc="http://purl.org/dc/elements/1.1/"
   xmlns:cc="http://creativecommons.org/ns#"
   xmlns:rdf="http://www.w3.org/1999/02/22-rdf-syntax-ns#"
   xmlns:svg="http://www.w3.org/2000/svg"
   xmlns="http://www.w3.org/2000/svg"
   xmlns:sodipodi="http://sodipodi.sourceforge.net/DTD/sodipodi-0.dtd"
   xmlns:inkscape="http://www.inkscape.org/namespaces/inkscape"
   width="700"
   height="132"
   id="svg3207"
   version="1.1"
   inkscape:version="0.48.4 r9939"
   sodipodi:docname="sagemathcell-logo.svg"
   inkscape:export-filename="/home/harri/d/sage/sagemathcell-logo.png"
   inkscape:export-xdpi="54.549999"
   inkscape:export-ydpi="54.549999">
  <defs
     id="defs3209" />
  <sodipodi:namedview
     id="base"
     pagecolor="#ffffff"
     bordercolor="#666666"
     borderopacity="1.0"
     inkscape:pageopacity="0"
     inkscape:pageshadow="2"
     inkscape:zoom="0.98994949"
     inkscape:cx="495.18308"
     inkscape:cy="-113.46918"
     inkscape:document-units="px"
     inkscape:current-layer="g3315"
     showgrid="true"
     inkscape:window-width="1920"
     inkscape:window-height="1056"
     inkscape:window-x="0"
     inkscape:window-y="24"
     inkscape:window-maximized="1"
     inkscape:showpageshadow="true"
     borderlayer="false"
     inkscape:snap-bbox="true"
     inkscape:snap-grids="true"
     showguides="true"
     inkscape:guide-bbox="true">
    <inkscape:grid
       type="xygrid"
       id="grid3249"
       empspacing="5"
       visible="true"
       enabled="true"
       snapvisiblegridlinesonly="true" />
  </sodipodi:namedview>
  <metadata
     id="metadata3212">
    <rdf:RDF>
      <cc:Work
         rdf:about="">
        <dc:format>image/svg+xml</dc:format>
        <dc:type
           rdf:resource="http://purl.org/dc/dcmitype/StillImage" />
        <dc:title></dc:title>
      </cc:Work>
    </rdf:RDF>
  </metadata>
  <g
     inkscape:label="Layer 1"
     inkscape:groupmode="layer"
     id="layer1"
     transform="translate(0,-920.36218)">
    <g
       style="display:inline"
       id="g3315"
       transform="matrix(1.3381806,0,0,1.3469268,-19.643557,-344.88934)">
      <path
         transform="matrix(0.70057808,0,0,0.69602891,64.18682,973.82769)"
         style="color:#000000;fill:#1919bf;fill-opacity:1;fill-rule:nonzero;stroke:none;stroke-width:5;marker:none;visibility:visible;display:inline;overflow:visible;enable-background:accumulate"
         d="m 676,22 -40,69.282032 -562.666666,0 L 116,22 73.333334,-47.282032 l 562.666666,0 z"
         id="path5151"
         inkscape:connector-curvature="0"
         sodipodi:nodetypes="ccccccc" />
      <g
         transform="matrix(0.87433871,0,0,0.86866126,63.443376,127.21609)"
         style="font-size:35.75294876px;font-style:normal;font-variant:normal;font-weight:bold;font-stretch:normal;line-height:85.00000238%;letter-spacing:4.4691186px;word-spacing:0px;fill:#ffffff;fill-opacity:1;stroke:none;font-family:OCRABold;-inkscape-font-specification:OCRABold Bold"
         id="text3014">
        <g
           id="g3061"
           transform="matrix(1.043273,0,0,1.043273,-14.394889,-41.813143)">
          <text
             xml:space="preserve"
             style="font-size:63.31251526px;font-style:normal;font-variant:normal;font-weight:bold;font-stretch:normal;line-height:125%;letter-spacing:-9.87811661px;word-spacing:0px;fill:#ffffff;fill-opacity:1;stroke:none;font-family:OCRA;-inkscape-font-specification:OCRA Bold"
             x="106.13152"
             y="1013.1765"
             id="text3031"
             sodipodi:linespacing="125%"><tspan
               sodipodi:role="line"
               id="tspan3033"
               x="106.13152"
               y="1013.1765"
               dx="0 -1.98773 -1.98773 -1.9317846 5.3203788 -1.9317846 -4.7038646 -2.4638226 4.788341 -4.788341 -5.3203788 -7.9805679">SageMathCell</tspan></text>
        </g>
      </g>
      <path
         sodipodi:type="star"
         style="color:#000000;fill:#1919bf;fill-opacity:1;fill-rule:nonzero;stroke:none;stroke-width:3.93647933;marker:none;visibility:visible;display:inline;overflow:visible;enable-background:accumulate"
         id="path5149"
         sodipodi:sides="6"
         sodipodi:cx="-200"
         sodipodi:cy="-108"
         sodipodi:r1="50"
         sodipodi:r2="43.30127"
         sodipodi:arg1="0"
         sodipodi:arg2="0.52359878"
         inkscape:flatsided="true"
         inkscape:rounded="0"
         inkscape:randomized="0"
         d="m -150,-108 -25,43.30127 -50,0 -25,-43.30127 25,-43.30127 50,0 z"
         transform="matrix(1.1234783,0,0,1.1161831,298.09861,1109.7265)" />
      <g
         transform="matrix(0.49362665,0,0,0.50633838,-698.35649,-189.04746)"
         id="g5086">
        <path
           sodipodi:type="arc"
           style="opacity:0.98999999;fill:#ffffff;fill-opacity:1;stroke:none"
           id="path5088"
           sodipodi:cx="1324.929"
           sodipodi:cy="1792.4095"
           sodipodi:rx="7.3256478"
           sodipodi:ry="7.3256478"
           d="m 1332.2546,1792.4095 c 0,4.0459 -3.2798,7.3257 -7.3256,7.3257 -4.0459,0 -7.3257,-3.2798 -7.3257,-7.3257 0,-4.0458 3.2798,-7.3256 7.3257,-7.3256 4.0458,0 7.3256,3.2798 7.3256,7.3256 z"
           transform="matrix(0.9672595,0,0,0.9672595,235.69886,548.04605)" />
        <path
           transform="matrix(0.9672595,0,0,0.9672595,308.74604,539.35166)"
           d="m 1332.2546,1792.4095 c 0,4.0459 -3.2798,7.3257 -7.3256,7.3257 -4.0459,0 -7.3257,-3.2798 -7.3257,-7.3257 0,-4.0458 3.2798,-7.3256 7.3257,-7.3256 4.0458,0 7.3256,3.2798 7.3256,7.3256 z"
           sodipodi:ry="7.3256478"
           sodipodi:rx="7.3256478"
           sodipodi:cy="1792.4095"
           sodipodi:cx="1324.929"
           id="path5090"
           style="opacity:0.98999999;fill:#ffffff;fill-opacity:1;stroke:none"
           sodipodi:type="arc" />
        <path
           sodipodi:type="arc"
           style="opacity:0.98999999;fill:#ffffff;fill-opacity:1;stroke:none"
           id="path5092"
           sodipodi:cx="1324.929"
           sodipodi:cy="1792.4095"
           sodipodi:rx="7.3256478"
           sodipodi:ry="7.3256478"
           d="m 1332.2546,1792.4095 c 0,4.0459 -3.2798,7.3257 -7.3256,7.3257 -4.0459,0 -7.3257,-3.2798 -7.3257,-7.3257 0,-4.0458 3.2798,-7.3256 7.3257,-7.3256 4.0458,0 7.3256,3.2798 7.3256,7.3256 z"
           transform="matrix(1.2053547,0,0,1.2053547,-25.196551,182.19849)" />
        <path
           sodipodi:type="arc"
           style="opacity:0.98999999;fill:#ffffff;fill-opacity:1;stroke:none"
           id="path5094"
           sodipodi:cx="1324.929"
           sodipodi:cy="1792.4095"
           sodipodi:rx="7.3256478"
           sodipodi:ry="7.3256478"
           d="m 1332.2546,1792.4095 c 0,4.0459 -3.2798,7.3257 -7.3256,7.3257 -4.0459,0 -7.3257,-3.2798 -7.3257,-7.3257 0,-4.0458 3.2798,-7.3256 7.3257,-7.3256 4.0458,0 7.3256,3.2798 7.3256,7.3256 z"
           transform="matrix(0.7953719,0,0,0.7953719,449.34462,925.45441)" />
        <path
           transform="matrix(0.7953719,0,0,0.7953719,499.30379,973.24771)"
           d="m 1332.2546,1792.4095 c 0,4.0459 -3.2798,7.3257 -7.3256,7.3257 -4.0459,0 -7.3257,-3.2798 -7.3257,-7.3257 0,-4.0458 3.2798,-7.3256 7.3257,-7.3256 4.0458,0 7.3256,3.2798 7.3256,7.3256 z"
           sodipodi:ry="7.3256478"
           sodipodi:rx="7.3256478"
           sodipodi:cy="1792.4095"
           sodipodi:cx="1324.929"
           id="path5096"
           style="opacity:0.98999999;fill:#ffffff;fill-opacity:1;stroke:none"
           sodipodi:type="arc" />
        <path
           sodipodi:type="arc"
           style="opacity:0.98999999;fill:#ffffff;fill-opacity:1;stroke:none"
           id="path5098"
           sodipodi:cx="1324.929"
           sodipodi:cy="1792.4095"
           sodipodi:rx="7.3256478"
           sodipodi:ry="7.3256478"
           d="m 1332.2546,1792.4095 c 0,4.0459 -3.2798,7.3257 -7.3256,7.3257 -4.0459,0 -7.3257,-3.2798 -7.3257,-7.3257 0,-4.0458 3.2798,-7.3256 7.3257,-7.3256 4.0458,0 7.3256,3.2798 7.3256,7.3256 z"
           transform="matrix(0.7953719,0,0,0.7953719,556.29908,956.69427)" />
        <path
           transform="matrix(0.7953719,0,0,0.7953719,581.00221,902.90894)"
           d="m 1332.2546,1792.4095 c 0,4.0459 -3.2798,7.3257 -7.3256,7.3257 -4.0459,0 -7.3257,-3.2798 -7.3257,-7.3257 0,-4.0458 3.2798,-7.3256 7.3257,-7.3256 4.0458,0 7.3256,3.2798 7.3256,7.3256 z"
           sodipodi:ry="7.3256478"
           sodipodi:rx="7.3256478"
           sodipodi:cy="1792.4095"
           sodipodi:cx="1324.929"
           id="path5100"
           style="opacity:0.98999999;fill:#ffffff;fill-opacity:1;stroke:none"
           sodipodi:type="arc" />
        <path
           sodipodi:type="arc"
           style="opacity:0.98999999;fill:#ffffff;fill-opacity:1;stroke:none"
           id="path5102"
           sodipodi:cx="1324.929"
           sodipodi:cy="1792.4095"
           sodipodi:rx="7.3256478"
           sodipodi:ry="7.3256478"
           d="m 1332.2546,1792.4095 c 0,4.0459 -3.2798,7.3257 -7.3256,7.3257 -4.0459,0 -7.3257,-3.2798 -7.3257,-7.3257 0,-4.0458 3.2798,-7.3256 7.3257,-7.3256 4.0458,0 7.3256,3.2798 7.3256,7.3256 z"
           transform="matrix(0.6234843,0,0,0.6234843,800.65848,1180.6657)" />
        <path
           transform="matrix(0.6234843,0,0,0.6234843,766.33259,1139.9519)"
           d="m 1332.2546,1792.4095 c 0,4.0459 -3.2798,7.3257 -7.3256,7.3257 -4.0459,0 -7.3257,-3.2798 -7.3257,-7.3257 0,-4.0458 3.2798,-7.3256 7.3257,-7.3256 4.0458,0 7.3256,3.2798 7.3256,7.3256 z"
           sodipodi:ry="7.3256478"
           sodipodi:rx="7.3256478"
           sodipodi:cy="1792.4095"
           sodipodi:cx="1324.929"
           id="path5104"
           style="opacity:0.98999999;fill:#ffffff;fill-opacity:1;stroke:none"
           sodipodi:type="arc" />
        <path
           sodipodi:type="arc"
           style="opacity:0.98999999;fill:#ffffff;fill-opacity:1;stroke:none"
           id="path5106"
           sodipodi:cx="1324.929"
           sodipodi:cy="1792.4095"
           sodipodi:rx="7.3256478"
           sodipodi:ry="7.3256478"
           d="m 1332.2546,1792.4095 c 0,4.0459 -3.2798,7.3257 -7.3256,7.3257 -4.0459,0 -7.3257,-3.2798 -7.3257,-7.3257 0,-4.0458 3.2798,-7.3256 7.3257,-7.3256 4.0458,0 7.3256,3.2798 7.3256,7.3256 z"
           transform="matrix(0.6234843,0,0,0.6234843,664.75027,1230.1938)" />
        <path
           transform="matrix(0.6234843,0,0,0.6234843,701.58781,1267.5497)"
           d="m 1332.2546,1792.4095 c 0,4.0459 -3.2798,7.3257 -7.3256,7.3257 -4.0459,0 -7.3257,-3.2798 -7.3257,-7.3257 0,-4.0458 3.2798,-7.3256 7.3257,-7.3256 4.0458,0 7.3256,3.2798 7.3256,7.3256 z"
           sodipodi:ry="7.3256478"
           sodipodi:rx="7.3256478"
           sodipodi:cy="1792.4095"
           sodipodi:cx="1324.929"
           id="path5108"
           style="opacity:0.98999999;fill:#ffffff;fill-opacity:1;stroke:none"
           sodipodi:type="arc" />
        <path
           transform="matrix(0.7953719,0,0,0.7953719,440.41431,869.81028)"
           d="m 1332.2546,1792.4095 c 0,4.0459 -3.2798,7.3257 -7.3256,7.3257 -4.0459,0 -7.3257,-3.2798 -7.3257,-7.3257 0,-4.0458 3.2798,-7.3256 7.3257,-7.3256 4.0458,0 7.3256,3.2798 7.3256,7.3256 z"
           sodipodi:ry="7.3256478"
           sodipodi:rx="7.3256478"
           sodipodi:cy="1792.4095"
           sodipodi:cx="1324.929"
           id="path5110"
           style="opacity:0.98999999;fill:#ffffff;fill-opacity:1;stroke:none"
           sodipodi:type="arc" />
        <path
           sodipodi:type="arc"
           style="opacity:0.98999999;fill:#ffffff;fill-opacity:1;stroke:none"
           id="path5112"
           sodipodi:cx="1324.929"
           sodipodi:cy="1792.4095"
           sodipodi:rx="7.3256478"
           sodipodi:ry="7.3256478"
           d="m 1332.2546,1792.4095 c 0,4.0459 -3.2798,7.3257 -7.3256,7.3257 -4.0459,0 -7.3257,-3.2798 -7.3257,-7.3257 0,-4.0458 3.2798,-7.3256 7.3257,-7.3256 4.0458,0 7.3256,3.2798 7.3256,7.3256 z"
           transform="matrix(0.7953719,0,0,0.7953719,484.50773,829.39633)" />
        <path
           sodipodi:type="arc"
           style="opacity:0.98999999;fill:#ffffff;fill-opacity:1;stroke:none"
           id="path5114"
           sodipodi:cx="1324.929"
           sodipodi:cy="1792.4095"
           sodipodi:rx="7.3256478"
           sodipodi:ry="7.3256478"
           d="m 1332.2546,1792.4095 c 0,4.0459 -3.2798,7.3257 -7.3256,7.3257 -4.0459,0 -7.3257,-3.2798 -7.3257,-7.3257 0,-4.0458 3.2798,-7.3256 7.3257,-7.3256 4.0458,0 7.3256,3.2798 7.3256,7.3256 z"
           transform="matrix(0.6234843,0,0,0.6234843,699.00639,1196.6154)" />
        <path
           transform="matrix(0.6234843,0,0,0.6234843,749.0301,1256.3969)"
           d="m 1332.2546,1792.4095 c 0,4.0459 -3.2798,7.3257 -7.3256,7.3257 -4.0459,0 -7.3257,-3.2798 -7.3257,-7.3257 0,-4.0458 3.2798,-7.3256 7.3257,-7.3256 4.0458,0 7.3256,3.2798 7.3256,7.3256 z"
           sodipodi:ry="7.3256478"
           sodipodi:rx="7.3256478"
           sodipodi:cy="1792.4095"
           sodipodi:cx="1324.929"
           id="path5116"
           style="opacity:0.98999999;fill:#ffffff;fill-opacity:1;stroke:none"
           sodipodi:type="arc" />
        <path
           inkscape:connector-curvature="0"
           style="fill:none;stroke:#ffffff;stroke-width:8;stroke-linecap:butt;stroke-linejoin:miter;stroke-miterlimit:4;stroke-opacity:1;stroke-dasharray:none"
           d="m 1590.0065,2271.6035 -18.6281,72.6731"
           id="path5118" />
        <path
           inkscape:connector-curvature="0"
           style="fill:none;stroke:#ffffff;stroke-width:8;stroke-linecap:butt;stroke-linejoin:miter;stroke-miterlimit:4;stroke-opacity:1;stroke-dasharray:none"
           d="m 1589.0995,2273.5223 -72.5588,8.4545"
           id="path5120" />
        <path
           inkscape:connector-curvature="0"
           style="fill:none;stroke:#ffffff;stroke-width:8;stroke-linecap:butt;stroke-linejoin:miter;stroke-miterlimit:4;stroke-opacity:1;stroke-dasharray:none"
           d="m 1571.3087,2343.4372 -54.6982,-61.8801"
           id="path5122" />
        <path
           inkscape:connector-curvature="0"
           style="fill:none;stroke:#ffffff;stroke-width:6;stroke-linecap:butt;stroke-linejoin:miter;stroke-miterlimit:4;stroke-opacity:1;stroke-dasharray:none"
           d="m 1571.3087,2343.8569 -18.07,55.944"
           id="path5124" />
        <path
           inkscape:connector-curvature="0"
           style="fill:none;stroke:#ffffff;stroke-width:4;stroke-linecap:butt;stroke-linejoin:miter;stroke-miterlimit:4;stroke-opacity:1;stroke-dasharray:none"
           d="m 1516.4012,2281.3172 21.0002,-24.3443"
           id="path5126" />
        <path
           inkscape:connector-curvature="0"
           style="fill:none;stroke:#ffffff;stroke-width:4;stroke-linecap:butt;stroke-linejoin:miter;stroke-miterlimit:4;stroke-opacity:1;stroke-dasharray:none"
           d="m 1493.9359,2295.4681 21.7676,-14.3307"
           id="path5128" />
        <path
           inkscape:connector-curvature="0"
           style="fill:none;stroke:#ffffff;stroke-width:4;stroke-linecap:butt;stroke-linejoin:miter;stroke-miterlimit:4;stroke-opacity:1;stroke-dasharray:none"
           d="m 1503.0057,2350.6326 13.3955,-69.9749"
           id="path5130" />
        <path
           inkscape:connector-curvature="0"
           style="fill:none;stroke:#ffffff;stroke-width:6;stroke-linecap:butt;stroke-linejoin:miter;stroke-miterlimit:4;stroke-opacity:1;stroke-dasharray:none"
           d="m 1552.1922,2398.5417 -49.5353,-46.59"
           id="path5132" />
        <path
           inkscape:connector-curvature="0"
           style="fill:none;stroke:#ffffff;stroke-width:6;stroke-linecap:butt;stroke-linejoin:miter;stroke-miterlimit:4;stroke-opacity:1;stroke-dasharray:none"
           d="m 1610.0997,2381.3328 -58.1168,16.969"
           id="path5134" />
        <path
           inkscape:connector-curvature="0"
           style="fill:none;stroke:#ffffff;stroke-width:6;stroke-linecap:butt;stroke-linejoin:miter;stroke-miterlimit:4;stroke-opacity:1;stroke-dasharray:none"
           d="m 1634.2395,2328.3869 -24.1398,53.1257"
           id="path5136" />
        <path
           inkscape:connector-curvature="0"
           style="fill:none;stroke:#ffffff;stroke-width:6;stroke-linecap:butt;stroke-linejoin:miter;stroke-miterlimit:4;stroke-opacity:1;stroke-dasharray:none"
           d="m 1570.5412,2343.4372 62.8611,-14.6306"
           id="path5138" />
        <path
           inkscape:connector-curvature="0"
           style="fill:none;stroke:#ffffff;stroke-width:6;stroke-linecap:butt;stroke-linejoin:miter;stroke-miterlimit:4;stroke-opacity:1;stroke-dasharray:none"
           d="m 1590.1461,2273.0426 43.1166,55.1644"
           id="path5140" />
        <path
           inkscape:connector-curvature="0"
           style="fill:none;stroke:#ffffff;stroke-width:6;stroke-linecap:butt;stroke-linejoin:miter;stroke-miterlimit:4;stroke-opacity:1;stroke-dasharray:none"
           d="m 1501.7987,2350.6326 66.9774,-7.1954"
           id="path5142" />
        <path
           inkscape:connector-curvature="0"
           style="fill:none;stroke:#ffffff;stroke-width:4;stroke-linecap:butt;stroke-linejoin:miter;stroke-miterlimit:4;stroke-opacity:1;stroke-dasharray:none"
           d="m 1551.4038,2398.062 -24.4188,-13.1316"
           id="path5144" />
        <path
           inkscape:connector-curvature="0"
           style="fill:none;stroke:#ffffff;stroke-width:4;stroke-linecap:butt;stroke-linejoin:miter;stroke-miterlimit:4;stroke-opacity:1;stroke-dasharray:none"
           d="m 1489.38,2347.2747 36.3492,37.296"
           id="path5146" />
        <path
           inkscape:connector-curvature="0"
           style="fill:none;stroke:#ffffff;stroke-width:4;stroke-linecap:butt;stroke-linejoin:miter;stroke-miterlimit:4;stroke-opacity:1;stroke-dasharray:none"
           d="m 1493.2173,2295.9478 -2.721,51.3269"
           id="path5148" />
        <path
           inkscape:connector-curvature="0"
           style="fill:none;stroke:#ffffff;stroke-width:4;stroke-linecap:butt;stroke-linejoin:miter;stroke-miterlimit:4;stroke-opacity:1;stroke-dasharray:none"
           d="m 1537.3805,2254.8743 54.0702,1.8588"
           id="path5150" />
        <path
           inkscape:connector-curvature="0"
           style="fill:none;stroke:#ffffff;stroke-width:4;stroke-linecap:butt;stroke-linejoin:miter;stroke-miterlimit:4;stroke-opacity:1;stroke-dasharray:none"
           d="m 1627.172,2298.5261 -34.2562,-41.9729"
           id="path5152" />
        <path
           inkscape:connector-curvature="0"
           style="fill:none;stroke:#ffffff;stroke-width:4;stroke-linecap:butt;stroke-linejoin:miter;stroke-miterlimit:4;stroke-opacity:1;stroke-dasharray:none"
           d="m 1635.4744,2328.207 -9.0001,-30.1006"
           id="path5154" />
        <path
           inkscape:connector-curvature="0"
           style="fill:none;stroke:#ffffff;stroke-width:4;stroke-linecap:butt;stroke-linejoin:miter;stroke-miterlimit:4;stroke-opacity:1;stroke-dasharray:none"
           d="m 1589.4972,2272.2631 3.2093,-15.2902"
           id="path5156" />
        <path
           inkscape:connector-curvature="0"
           style="fill:none;stroke:#ffffff;stroke-width:4;stroke-linecap:butt;stroke-linejoin:miter;stroke-miterlimit:4;stroke-opacity:1;stroke-dasharray:none"
           d="m 1503.6825,2351.2305 -14.1629,-2.6983"
           id="path5158" />
        <path
           inkscape:connector-curvature="0"
           style="fill:none;stroke:#ffffff;stroke-width:2;stroke-linecap:butt;stroke-linejoin:miter;stroke-miterlimit:4;stroke-opacity:1;stroke-dasharray:none"
           d="m 1526.985,2385.4084 46.7446,-11.4526"
           id="path5160" />
        <path
           inkscape:connector-curvature="0"
           style="fill:none;stroke:#ffffff;stroke-width:2;stroke-linecap:butt;stroke-linejoin:miter;stroke-miterlimit:4;stroke-opacity:1;stroke-dasharray:none"
           d="m 1574.9157,2373.8958 33.6282,7.2554"
           id="path5162" />
        <path
           inkscape:connector-curvature="0"
           style="fill:none;stroke:#ffffff;stroke-width:2;stroke-linecap:butt;stroke-linejoin:miter;stroke-miterlimit:4;stroke-opacity:1;stroke-dasharray:none"
           d="m 1492.5121,2295.941 61.203,-6.8478"
           id="path5164" />
        <path
           inkscape:connector-curvature="0"
           style="fill:none;stroke:#ffffff;stroke-width:2;stroke-linecap:butt;stroke-linejoin:miter;stroke-miterlimit:4;stroke-opacity:1;stroke-dasharray:none"
           d="m 1553.7151,2287.7387 36.4241,-13.5452"
           id="path5166" />
        <path
           sodipodi:type="arc"
           style="opacity:0.98999999;fill:#ffffff;fill-opacity:1;stroke:none"
           id="path5168"
           sodipodi:cx="1324.929"
           sodipodi:cy="1792.4095"
           sodipodi:rx="7.3256478"
           sodipodi:ry="7.3256478"
           d="m 1332.2546,1792.4095 c 0,4.0459 -3.2798,7.3257 -7.3256,7.3257 -4.0459,0 -7.3257,-3.2798 -7.3257,-7.3257 0,-4.0458 3.2798,-7.3256 7.3257,-7.3256 4.0458,0 7.3256,3.2798 7.3256,7.3256 z"
           transform="matrix(0.6234843,0,0,0.6234843,726.86911,1170.9368)" />
        <path
           transform="matrix(0.5833906,0,0,0.5833906,837.2333,1298.2147)"
           d="m 1332.2546,1792.4095 c 0,4.0459 -3.2798,7.3257 -7.3256,7.3257 -4.0459,0 -7.3257,-3.2798 -7.3257,-7.3257 0,-4.0458 3.2798,-7.3256 7.3257,-7.3256 4.0458,0 7.3256,3.2798 7.3256,7.3256 z"
           sodipodi:ry="7.3256478"
           sodipodi:rx="7.3256478"
           sodipodi:cy="1792.4095"
           sodipodi:cx="1324.929"
           id="path5170"
           style="opacity:0.98999999;fill:#ffffff;fill-opacity:1;stroke:none"
           sodipodi:type="arc" />
        <path
           inkscape:connector-curvature="0"
           style="fill:none;stroke:#ffffff;stroke-width:2;stroke-linecap:butt;stroke-linejoin:miter;stroke-miterlimit:4;stroke-opacity:1;stroke-dasharray:none"
           d="m 1609.6576,2343.739 16.404,-46.0639"
           id="path5172" />
        <path
           inkscape:connector-curvature="0"
           style="fill:none;stroke:#ffffff;stroke-width:2;stroke-linecap:butt;stroke-linejoin:miter;stroke-miterlimit:4;stroke-opacity:1;stroke-dasharray:none"
           d="m 1609.4298,2381.481 0.5696,-38.77"
           id="path5174" />
        <path
           inkscape:connector-curvature="0"
           id="path5176"
           d="m 1502.1919,2350.0723 23.4339,-35.9573"
           style="fill:none;stroke:#ffffff;stroke-width:2;stroke-linecap:butt;stroke-linejoin:miter;stroke-miterlimit:4;stroke-opacity:1;stroke-dasharray:none" />
        <path
           inkscape:connector-curvature="0"
           id="path5178"
           d="M 1537.8572,2255.3651 1524.94,2314.115"
           style="fill:none;stroke:#ffffff;stroke-width:2;stroke-linecap:butt;stroke-linejoin:miter;stroke-miterlimit:4;stroke-opacity:1;stroke-dasharray:none" />
      </g>
    </g>
  </g>
</svg>
